<svg width="32" height="30" viewBox="0 0 49 46" fill="none" xmlns="http://www.w3.org/2000/svg">
<ellipse cx="24.5" cy="23" rx="24.5" ry="23" fill="#0E5281" fill-opacity="0.58"/>
<ellipse cx="24.5" cy="23" rx="22.5" ry="21" fill="#DEE9F0"/>
<path d="M20.2628 16.3196L27.9474 22.9564C28.1159 23.1012 28.2104 23.2967 28.2104 23.5004C28.2104 23.7041 28.1159 23.8995 27.9474 24.0443L20.2645 30.6811C20.0961 30.8268 20.0017 31.0229 20.0017 31.2272C20.0017 31.4315 20.0961 31.6276 20.2645 31.7733C20.3468 31.8451 20.4451 31.9021 20.5538 31.941C20.6624 31.9799 20.7791 32 20.897 32C21.0149 32 21.1315 31.9799 21.2402 31.941C21.3488 31.9021 21.4471 31.8451 21.5294 31.7733L29.2123 25.138C29.7172 24.7009 30 24.1129 30 23.5004C30 22.8879 29.7172 22.2998 29.2123 21.8628L21.5294 15.2274C21.4471 15.1555 21.3487 15.0983 21.2399 15.0592C21.1311 15.0201 21.0142 15 20.8961 15C20.778 15 20.6612 15.0201 20.5524 15.0592C20.4436 15.0983 20.3452 15.1555 20.2628 15.2274C20.0944 15.3731 20 15.5692 20 15.7735C20 15.9778 20.0944 16.1739 20.2628 16.3196Z" fill="#4F5054"/>
</svg>
