<svg width="49" height="46" viewBox="0 0 49 46" fill="none" xmlns="http://www.w3.org/2000/svg">
<ellipse cx="24.5" cy="23" rx="24.5" ry="23" fill="#0E5281" fill-opacity="0.58"/>
<ellipse cx="24.5" cy="23" rx="22.5" ry="21" fill="#DEE9F0"/>
<path d="M27.9543 29.6828L20.1782 23.1535C20.0077 23.0111 19.9104 22.8169 19.9076 22.6133C19.9048 22.4096 19.9966 22.2128 20.1631 22.0657L27.7529 15.3227C27.9193 15.1747 28.011 14.9773 28.0081 14.773C28.0053 14.5687 27.9082 14.3739 27.7377 14.2306C27.6544 14.16 27.5553 14.1044 27.4461 14.0669C27.337 14.0295 27.22 14.0111 27.1022 14.0127C26.9843 14.0144 26.8679 14.036 26.7598 14.0765C26.6517 14.1169 26.5542 14.1753 26.4729 14.2482L18.8831 20.9898C18.3844 21.4338 18.1097 22.0257 18.1182 22.6382C18.1267 23.2506 18.4177 23.8346 18.9286 24.2646L26.7031 30.7925C26.7864 30.8633 26.8856 30.9191 26.9949 30.9567C27.1042 30.9942 27.2214 31.0127 27.3395 31.0111C27.4575 31.0094 27.5741 30.9877 27.6823 30.9471C27.7906 30.9065 27.8882 30.848 27.9695 30.7749C28.1359 30.6268 28.2276 30.4294 28.2247 30.2252C28.2219 30.0209 28.1248 29.8261 27.9543 29.6828Z" fill="#56585E"/>
</svg>
