<svg width="22" height="22" viewBox="0 0 22 22" fill="none" xmlns="http://www.w3.org/2000/svg">
<path d="M7.33333 12.833C7.07361 12.833 6.85606 12.745 6.68067 12.569C6.50528 12.393 6.41728 12.1755 6.41667 11.9163C6.41667 11.6566 6.50467 11.4391 6.68067 11.2637C6.85667 11.0883 7.07422 11.0003 7.33333 10.9997C7.59306 10.9997 7.81092 11.0877 7.98692 11.2637C8.16292 11.4397 8.25061 11.6572 8.25 11.9163C8.25 12.1761 8.162 12.3939 7.986 12.5699C7.81 12.7459 7.59244 12.8336 7.33333 12.833ZM11 12.833C10.7403 12.833 10.5227 12.745 10.3473 12.569C10.1719 12.393 10.0839 12.1755 10.0833 11.9163C10.0833 11.6566 10.1713 11.4391 10.3473 11.2637C10.5233 11.0883 10.7409 11.0003 11 10.9997C11.2597 10.9997 11.4776 11.0877 11.6536 11.2637C11.8296 11.4397 11.9173 11.6572 11.9167 11.9163C11.9167 12.1761 11.8287 12.3939 11.6527 12.5699C11.4767 12.7459 11.2591 12.8336 11 12.833ZM14.6667 12.833C14.4069 12.833 14.1894 12.745 14.014 12.569C13.8386 12.393 13.7506 12.1755 13.75 11.9163C13.75 11.6566 13.838 11.4391 14.014 11.2637C14.19 11.0883 14.4076 11.0003 14.6667 10.9997C14.9264 10.9997 15.1442 11.0877 15.3202 11.2637C15.4963 11.4397 15.5839 11.6572 15.5833 11.9163C15.5833 12.1761 15.4953 12.3939 15.3193 12.5699C15.1433 12.7459 14.9258 12.8336 14.6667 12.833ZM4.58333 20.1663C4.07917 20.1663 3.64772 19.987 3.289 19.6283C2.93028 19.2695 2.75061 18.8378 2.75 18.333V5.49967C2.75 4.99551 2.92967 4.56406 3.289 4.20534C3.64833 3.84662 4.07978 3.66695 4.58333 3.66634H5.5V2.74967C5.5 2.48995 5.588 2.2724 5.764 2.09701C5.94 1.92162 6.15756 1.83362 6.41667 1.83301C6.67639 1.83301 6.89425 1.92101 7.07025 2.09701C7.24625 2.27301 7.33394 2.49056 7.33333 2.74967V3.66634H14.6667V2.74967C14.6667 2.48995 14.7547 2.2724 14.9307 2.09701C15.1067 1.92162 15.3242 1.83362 15.5833 1.83301C15.8431 1.83301 16.0609 1.92101 16.2369 2.09701C16.4129 2.27301 16.5006 2.49056 16.5 2.74967V3.66634H17.4167C17.9208 3.66634 18.3526 3.84601 18.7119 4.20534C19.0713 4.56467 19.2506 4.99612 19.25 5.49967V18.333C19.25 18.8372 19.0706 19.2689 18.7119 19.6283C18.3532 19.9876 17.9214 20.167 17.4167 20.1663H4.58333ZM4.58333 18.333H17.4167V9.16634H4.58333V18.333ZM4.58333 7.33301H17.4167V5.49967H4.58333V7.33301Z" fill="black"/>
</svg>
