<svg width="20" height="20" viewBox="0 0 18 18" fill="none" xmlns="http://www.w3.org/2000/svg">
<path d="M9 0C13.9707 0 18 4.0293 18 9C18 13.9707 13.9707 18 9 18C4.0293 18 0 13.9707 0 9C0 4.0293 4.0293 0 9 0ZM9 1.8C7.09044 1.8 5.25909 2.55857 3.90883 3.90883C2.55857 5.25909 1.8 7.09044 1.8 9C1.8 10.9096 2.55857 12.7409 3.90883 14.0912C5.25909 15.4414 7.09044 16.2 9 16.2C10.9096 16.2 12.7409 15.4414 14.0912 14.0912C15.4414 12.7409 16.2 10.9096 16.2 9C16.2 7.09044 15.4414 5.25909 14.0912 3.90883C12.7409 2.55857 10.9096 1.8 9 1.8ZM9 3.6C9.22044 3.60003 9.4332 3.68096 9.59793 3.82744C9.76267 3.97393 9.86791 4.17577 9.8937 4.3947L9.9 4.5V8.6274L12.3363 11.0637C12.4977 11.2257 12.5914 11.443 12.5984 11.6715C12.6054 11.9001 12.5251 12.1227 12.3739 12.2943C12.2226 12.4658 12.0118 12.5733 11.7842 12.595C11.5565 12.6166 11.3292 12.5509 11.1483 12.411L11.0637 12.3363L8.3637 9.6363C8.22382 9.4963 8.13399 9.3141 8.1081 9.1179L8.1 9V4.5C8.1 4.26131 8.19482 4.03239 8.3636 3.8636C8.53239 3.69482 8.7613 3.6 9 3.6Z" fill="black"/>
</svg>
