<svg width="20" height="20" viewBox="0 0 15 19" fill="none" xmlns="http://www.w3.org/2000/svg">
<path d="M7.5 0.75C5.65555 0.749908 3.8856 1.47779 2.57484 2.77544C1.26408 4.0731 0.518445 5.83564 0.5 7.68C0.5 12.475 6.66875 17.8125 6.93125 18.04C7.08974 18.1756 7.29144 18.2501 7.5 18.2501C7.70856 18.2501 7.91026 18.1756 8.06875 18.04C8.375 17.8125 14.5 12.475 14.5 7.68C14.4816 5.83564 13.7359 4.0731 12.4252 2.77544C11.1144 1.47779 9.34445 0.749908 7.5 0.75ZM7.5 16.1937C6.03875 14.8025 2.25 10.9438 2.25 7.68C2.25 6.28761 2.80312 4.95226 3.78769 3.96769C4.77226 2.98312 6.10761 2.43 7.5 2.43C8.89239 2.43 10.2277 2.98312 11.2123 3.96769C12.1969 4.95226 12.75 6.28761 12.75 7.68C12.75 10.9175 8.96125 14.8025 7.5 16.1937Z" fill="white"/>
<path d="M7.5 4.25C6.8943 4.25 6.30219 4.42961 5.79857 4.76612C5.29494 5.10264 4.90241 5.58093 4.67062 6.14053C4.43883 6.70013 4.37818 7.3159 4.49635 7.90996C4.61451 8.50403 4.90619 9.04972 5.33449 9.47801C5.76279 9.90631 6.30847 10.198 6.90254 10.3162C7.4966 10.4343 8.11237 10.3737 8.67197 10.1419C9.23157 9.91009 9.70987 9.51756 10.0464 9.01393C10.3829 8.51031 10.5625 7.91821 10.5625 7.3125C10.5625 6.50027 10.2398 5.72132 9.66552 5.14699C9.09119 4.57266 8.31223 4.25 7.5 4.25ZM7.5 8.625C7.24041 8.625 6.98666 8.54802 6.77082 8.4038C6.55498 8.25958 6.38675 8.0546 6.28741 7.81477C6.18807 7.57494 6.16208 7.31104 6.21272 7.05644C6.26336 6.80184 6.38837 6.56798 6.57192 6.38442C6.75548 6.20087 6.98935 6.07586 7.24395 6.02522C7.49855 5.97458 7.76245 6.00057 8.00227 6.09991C8.2421 6.19925 8.44709 6.36748 8.59131 6.58331C8.73553 6.79915 8.8125 7.05291 8.8125 7.3125C8.8125 7.6606 8.67422 7.99444 8.42808 8.24058C8.18194 8.48672 7.8481 8.625 7.5 8.625Z" fill="white"/>
</svg>
