<svg width="253" height="82" viewBox="0 0 253 82" fill="none" xmlns="http://www.w3.org/2000/svg">
<path d="M1 9.42857V72.5714C1 77.2264 4.7736 81 9.42857 81H74.9706C78.4596 81 81.252 78.6619 83.3515 76.4256C84.8771 74.8005 86.65 74.0402 88.3635 74.0357C90.0765 74.0313 91.8437 74.7819 93.3602 76.3947C95.4678 78.636 98.2671 81 101.773 81H243.429C248.084 81 251.857 77.2264 251.857 72.5714V9.42857C251.857 4.7736 248.084 1 243.429 1H101.553C99.3413 1 97.4471 1.98842 95.8029 3.19979C94.7441 3.97987 93.6947 4.93146 92.7142 5.82049C92.2132 6.27475 91.7303 6.71267 91.2733 7.10304C90.3795 7.86648 89.1549 8.42857 87.4286 8.42857C85.7023 8.42857 84.4776 7.86648 83.5839 7.10304C83.1269 6.71267 82.6439 6.27475 82.143 5.82049C81.1625 4.93146 80.1131 3.97987 79.0543 3.19979C77.41 1.98842 75.5159 1 73.3039 1H9.42857C4.7736 1 1 4.7736 1 9.42857Z" fill="#FDFCFC" stroke="#0054B6" stroke-width="2" stroke-linejoin="round"/>
<path d="M44.157 61.4292H34.6299L18.6956 37.3049V61.4292H9.16846V22.3177H18.6956L34.6299 46.5534V22.3177H44.157V61.4292Z" fill="#0054B6"/>
<path d="M49.1687 45.8291C49.1687 42.6349 49.763 39.8306 50.9516 37.4163C52.1773 35.002 53.8301 33.1449 55.9101 31.8449C57.9901 30.5449 60.3116 29.8949 62.8744 29.8949C65.0659 29.8949 66.9787 30.3406 68.613 31.232C70.2844 32.1234 71.5659 33.2934 72.4573 34.742V30.3406H81.9844V61.4292H72.4573V57.0277C71.5287 58.4763 70.2287 59.6463 68.5573 60.5377C66.923 61.4291 65.0101 61.8749 62.8187 61.8749C60.293 61.8749 57.9901 61.2249 55.9101 59.9249C53.8301 58.5877 52.1773 56.712 50.9516 54.2977C49.763 51.8463 49.1687 49.0234 49.1687 45.8291ZM72.4573 45.8849C72.4573 43.5077 71.7887 41.632 70.4516 40.2577C69.1516 38.8834 67.5544 38.1963 65.6601 38.1963C63.7659 38.1963 62.1501 38.8834 60.813 40.2577C59.513 41.5949 58.863 43.452 58.863 45.8291C58.863 48.2063 59.513 50.1006 60.813 51.512C62.1501 52.8863 63.7659 53.5734 65.6601 53.5734C67.5544 53.5734 69.1516 52.8863 70.4516 51.512C71.7887 50.1377 72.4573 48.262 72.4573 45.8849Z" fill="#0054B6"/>
<path d="M120.058 22.3177V29.9506H104.124V38.1963H116.047V45.6063H104.124V61.4292H94.597V22.3177H120.058Z" fill="#0097FF"/>
<path d="M123.172 45.8291C123.172 42.6349 123.766 39.8306 124.954 37.4163C126.18 35.002 127.833 33.1449 129.913 31.8449C131.993 30.5449 134.314 29.8949 136.877 29.8949C139.069 29.8949 140.982 30.3406 142.616 31.232C144.287 32.1234 145.569 33.2934 146.46 34.742V30.3406H155.987V61.4292H146.46V57.0277C145.532 58.4763 144.232 59.6463 142.56 60.5377C140.926 61.4291 139.013 61.8749 136.822 61.8749C134.296 61.8749 131.993 61.2249 129.913 59.9249C127.833 58.5877 126.18 56.712 124.954 54.2977C123.766 51.8463 123.172 49.0234 123.172 45.8291ZM146.46 45.8849C146.46 43.5077 145.792 41.632 144.454 40.2577C143.154 38.8834 141.557 38.1963 139.663 38.1963C137.769 38.1963 136.153 38.8834 134.816 40.2577C133.516 41.5949 132.866 43.452 132.866 45.8291C132.866 48.2063 133.516 50.1006 134.816 51.512C136.153 52.8863 137.769 53.5734 139.663 53.5734C141.557 53.5734 143.154 52.8863 144.454 51.512C145.792 50.1377 146.46 48.262 146.46 45.8849Z" fill="#0097FF"/>
<path d="M167.671 27.1091C166 27.1091 164.625 26.6263 163.548 25.6606C162.508 24.6577 161.988 23.432 161.988 21.9834C161.988 20.4977 162.508 19.272 163.548 18.3063C164.625 17.3034 166 16.802 167.671 16.802C169.305 16.802 170.643 17.3034 171.683 18.3063C172.76 19.272 173.298 20.4977 173.298 21.9834C173.298 23.432 172.76 24.6577 171.683 25.6606C170.643 26.6263 169.305 27.1091 167.671 27.1091ZM172.407 30.3406V61.4292H162.88V30.3406H172.407Z" fill="#0097FF"/>
<path d="M197.697 61.4292L191.735 52.7934L186.721 61.4292H176.414L186.665 45.5506L176.135 30.3406H186.832L192.794 38.9206L197.808 30.3406H208.115L197.697 45.9963L208.394 61.4292H197.697Z" fill="#0097FF"/>
<path d="M210.171 45.8291C210.171 42.6349 210.765 39.8306 211.954 37.4163C213.179 35.002 214.832 33.1449 216.912 31.8449C218.992 30.5449 221.314 29.8949 223.876 29.8949C226.068 29.8949 227.981 30.3406 229.615 31.232C231.286 32.1234 232.568 33.2934 233.459 34.742V30.3406H242.986V61.4292H233.459V57.0277C232.531 58.4763 231.231 59.6463 229.559 60.5377C227.925 61.4291 226.012 61.8749 223.821 61.8749C221.295 61.8749 218.992 61.2249 216.912 59.9249C214.832 58.5877 213.179 56.712 211.954 54.2977C210.765 51.8463 210.171 49.0234 210.171 45.8291ZM233.459 45.8849C233.459 43.5077 232.791 41.632 231.454 40.2577C230.154 38.8834 228.556 38.1963 226.662 38.1963C224.768 38.1963 223.152 38.8834 221.815 40.2577C220.515 41.5949 219.865 43.452 219.865 45.8291C219.865 48.2063 220.515 50.1006 221.815 51.512C223.152 52.8863 224.768 53.5734 226.662 53.5734C228.556 53.5734 230.154 52.8863 231.454 51.512C232.791 50.1377 233.459 48.262 233.459 45.8849Z" fill="#0097FF"/>
<line x1="87.9294" y1="9.42871" x2="87.9294" y2="72.5716" stroke="#0054B6" stroke-linejoin="round" stroke-dasharray="1 1"/>
</svg>
