<svg width="121" height="103" viewBox="0 0 121 103" fill="none" xmlns="http://www.w3.org/2000/svg">
<path d="M18.4369 3.32816L2.09118 27.8341C0.710127 29.9047 1.32699 32.6922 3.39854 34.074L29.4561 51.4546C31.0312 52.5053 32.9368 52.2912 34.3706 51.9756C35.2746 51.7766 36.0303 51.9364 36.5846 52.3041C37.1385 52.6715 37.5755 53.3023 37.7383 54.2049C37.9992 55.6514 38.5291 57.5064 40.1118 58.5621L96.4299 96.1269C98.5014 97.5086 101.312 97.0073 102.693 94.9368L119.039 70.4308C120.42 68.3603 119.803 65.5727 117.732 64.191L61.3262 26.568C59.4702 25.33 57.4056 25.5502 55.6638 25.737C55.5116 25.7533 55.3768 25.7718 55.2492 25.7894C55.0068 25.8226 54.7901 25.8524 54.5291 25.8569C54.1661 25.8632 53.9354 25.804 53.7876 25.7054C53.201 25.3141 52.9332 24.871 52.8101 24.4545C52.7384 24.2123 52.6642 23.9314 52.5849 23.6316C52.4209 23.011 52.2354 22.3094 52.0077 21.7029C51.6504 20.7508 51.1028 19.7489 50.0951 19.0767L24.7002 2.13802C22.6286 0.756271 19.818 1.25765 18.4369 3.32816Z" fill="#0097FF" stroke="#0054B6" stroke-width="2" stroke-linejoin="round"/>
<path d="M22.1688 34.9775L18.4713 32.5112L18.5322 19.0236L12.2871 28.3863L8.5896 25.92L18.7144 10.7407L22.4119 13.207L22.3221 26.7379L28.596 17.3319L32.2936 19.7982L22.1688 34.9775Z" fill="#0097FF"/>
<path d="M28.1522 30.2204C28.9791 28.9807 29.9357 28.0462 31.022 27.4169C32.1227 26.7972 33.2449 26.5043 34.3887 26.5382C35.5325 26.5722 36.6017 26.9208 37.5964 27.5843C38.4469 28.1516 39.0739 28.8197 39.4774 29.5888C39.8953 30.3674 40.0897 31.1532 40.0607 31.9462L41.2001 30.238L44.8976 32.7043L36.8498 44.7699L33.1522 42.3036L34.2916 40.5954C33.5563 40.9172 32.7488 41.0347 31.8694 40.948C31.0044 40.8709 30.1466 40.5487 29.2961 39.9814C28.3158 39.3276 27.5904 38.4792 27.1196 37.4362C26.6585 36.3788 26.5026 35.223 26.6519 33.9687C26.8252 32.7096 27.3253 31.4602 28.1522 30.2204ZM37.1762 36.2708C37.7915 35.3482 38.0176 34.4472 37.8544 33.5676C37.7057 32.6977 37.2637 32.0176 36.5285 31.5272C35.7933 31.0369 34.9884 30.8853 34.1137 31.0725C33.263 31.2549 32.53 31.8074 31.9146 32.73C31.2992 33.6526 31.0611 34.556 31.2003 35.4403C31.3635 36.3198 31.8127 37.0048 32.5478 37.4952C33.283 37.9855 34.0808 38.1323 34.9411 37.9355C35.8158 37.7483 36.5608 37.1934 37.1762 36.2708Z" fill="#0097FF"/>
<path d="M61.7509 39.4469L59.775 42.4093L53.5909 38.2844L51.4563 41.4846L56.0836 44.571L54.1654 47.4469L49.5381 44.3604L45.442 50.5013L41.7445 48.0351L51.8693 32.8558L61.7509 39.4469Z" fill="#0097FF"/>
<path d="M56.8727 49.3777C57.6996 48.138 58.6562 47.2035 59.7425 46.5742C60.8432 45.9545 61.9654 45.6616 63.1092 45.6955C64.253 45.7294 65.3222 46.0781 66.3169 46.7415C67.1674 47.3088 67.7944 47.977 68.1979 48.746C68.6158 49.5247 68.8103 50.3105 68.7812 51.1034L69.9206 49.3952L73.6182 51.8615L65.5703 63.9271L61.8728 61.4608L63.0121 59.7526C62.2768 60.0744 61.4694 60.192 60.5899 60.1053C59.7249 60.0282 58.8671 59.706 58.0166 59.1387C57.0364 58.4848 56.3109 57.6364 55.8402 56.5935C55.379 55.5361 55.2231 54.3802 55.3724 53.1259C55.5457 51.8668 56.0458 50.6174 56.8727 49.3777ZM65.8967 55.428C66.5121 54.5054 66.7382 53.6044 66.575 52.7249C66.4262 51.855 65.9842 51.1749 65.249 50.6845C64.5139 50.1941 63.7089 50.0425 62.8342 50.2298C61.9835 50.4122 61.2505 50.9647 60.6351 51.8873C60.0198 52.8098 59.7816 53.7133 59.9208 54.5976C60.084 55.4771 60.5332 56.162 61.2684 56.6524C62.0035 57.1428 62.8013 57.2896 63.6616 57.0927C64.5363 56.9055 65.2813 56.3506 65.8967 55.428Z" fill="#0097FF"/>
<path d="M78.9892 53.632C78.3406 53.1993 77.9322 52.6561 77.7641 52.0025C77.6201 51.3441 77.7356 50.7338 78.1106 50.1716C78.4952 49.5949 79.0143 49.2539 79.6679 49.1483C80.3456 49.0379 81.0088 49.1991 81.6575 49.6317C82.2917 50.0548 82.6809 50.5956 82.8249 51.254C82.9929 51.9076 82.8847 52.5228 82.5001 53.0994C82.1251 53.6616 81.5987 53.9979 80.9211 54.1082C80.2675 54.2138 79.6235 54.0551 78.9892 53.632ZM79.9907 56.1121L71.9428 68.1776L68.2453 65.7114L76.2932 53.6458L79.9907 56.1121Z" fill="#0097FF"/>
<path d="M81.7579 74.7244L81.6798 69.8297L77.4982 71.8832L73.4979 69.215L81.587 65.7062L81.4377 57.0772L85.5893 59.8464L85.6819 64.7196L89.849 62.6877L93.8493 65.3559L85.753 68.7349L85.9095 77.4936L81.7579 74.7244Z" fill="#0097FF"/>
<path d="M90.6374 71.8991C91.4644 70.6594 92.4209 69.7249 93.5072 69.0956C94.6079 68.4759 95.7301 68.183 96.8739 68.2169C98.0177 68.2508 99.0869 68.5995 100.082 69.263C100.932 69.8303 101.559 70.4984 101.963 71.2675C102.381 72.0461 102.575 72.8319 102.546 73.6249L103.685 71.9167L107.383 74.383L99.335 86.4485L95.6375 83.9823L96.7769 82.274C96.0415 82.5959 95.2341 82.7134 94.3546 82.6267C93.4896 82.5496 92.6318 82.2274 91.7813 81.6601C90.8011 81.0063 90.0756 80.1579 89.6049 79.1149C89.1438 78.0575 88.9878 76.9016 89.1371 75.6473C89.3104 74.3883 89.8105 73.1389 90.6374 71.8991ZM99.6614 77.9495C100.277 77.0269 100.503 76.1258 100.34 75.2463C100.191 74.3764 99.7489 73.6963 99.0138 73.2059C98.2786 72.7156 97.4736 72.564 96.5989 72.7512C95.7482 72.9336 95.0152 73.4861 94.3998 74.4087C93.7845 75.3313 93.5464 76.2347 93.6855 77.119C93.8487 77.9985 94.2979 78.6835 95.0331 79.1739C95.7683 79.6642 96.566 79.811 97.4263 79.6142C98.301 79.4269 99.046 78.872 99.6614 77.9495Z" fill="#0097FF"/>
<path d="M53.1626 26.4902L36.8168 50.9962" stroke="#0054B6" stroke-linejoin="round" stroke-dasharray="1 1"/>
<path d="M4.28846 75.983L22.0265 99.5008C23.5252 101.488 26.3602 101.826 28.3482 100.326L53.355 81.465C54.8666 80.3248 55.2935 78.4554 55.4687 76.9978C55.5793 76.0788 55.9795 75.4181 56.5095 75.0162C57.0392 74.6146 57.7789 74.4103 58.6846 74.5545C60.1362 74.7857 62.0622 74.8977 63.581 73.7521L117.628 32.9876C119.616 31.4881 120.071 28.6695 118.572 26.6825L100.834 3.16467C99.3351 1.17765 96.5002 0.839948 94.5121 2.33939L40.3812 43.1671C38.6001 44.5105 38.1266 46.532 37.728 48.2379C37.6932 48.387 37.6662 48.5203 37.6406 48.6466C37.592 48.8864 37.5486 49.1007 37.4667 49.3486C37.3528 49.6933 37.2209 49.8915 37.079 49.9985C36.516 50.4232 36.0094 50.5297 35.5756 50.5085C35.3233 50.4961 35.0336 50.4735 34.7245 50.4494C34.0845 50.3994 33.361 50.343 32.7134 50.3577C31.6966 50.3808 30.5701 50.567 29.603 51.2964L5.23212 69.6779C3.24411 71.1774 2.78977 73.996 4.28846 75.983Z" fill="#FDFCFC" stroke="#0054B6" stroke-width="2" stroke-linejoin="round"/>
<path d="M35.397 82.906L31.8486 85.5823L19.1368 81.0734L25.9138 90.0586L22.3653 92.7349L11.3782 78.1677L14.9266 75.4914L27.6697 80.0418L20.8614 71.0151L24.4098 68.3387L35.397 82.906Z" fill="#0054B6"/>
<path d="M32.8813 75.6878C31.9839 74.4981 31.4175 73.2867 31.182 72.0536C30.9603 70.81 31.0542 69.654 31.4637 68.5855C31.8732 67.517 32.5552 66.6228 33.5098 65.9028C34.326 65.2872 35.1636 64.9158 36.0227 64.7887C36.8957 64.6512 37.7016 64.727 38.4406 65.0161L37.2041 63.3768L40.7526 60.7004L49.486 72.2795L45.9375 74.9559L44.7011 73.3165C44.7622 74.1169 44.6067 74.9179 44.2345 75.7194C43.8763 76.5106 43.289 77.2139 42.4728 77.8295C41.5321 78.5391 40.4918 78.9439 39.3519 79.044C38.2016 79.1303 37.059 78.896 35.9243 78.3411C34.7929 77.762 33.7786 76.8775 32.8813 75.6878ZM41.5708 69.1663C40.9031 68.281 40.1271 67.7701 39.243 67.6339C38.3728 67.4873 37.5849 67.68 36.8793 68.2121C36.1738 68.7443 35.7651 69.4541 35.6531 70.3416C35.5445 71.2048 35.8242 72.0791 36.4919 72.9645C37.1597 73.8499 37.934 74.3728 38.8147 74.5333C39.6987 74.6695 40.4936 74.4716 41.1991 73.9394C41.9046 73.4073 42.3065 72.7027 42.4046 71.8256C42.5165 70.9381 42.2386 70.0517 41.5708 69.1663Z" fill="#0054B6"/>
<path d="M52.6787 47.017L54.8229 49.8599L48.8881 54.3361L51.2045 57.4073L55.6452 54.0579L57.7268 56.8178L53.2861 60.1672L57.7311 66.0604L54.1826 68.7368L43.1955 54.1696L52.6787 47.017Z" fill="#0097FF"/>
<path d="M60.443 54.8994C59.5456 53.7097 58.9792 52.4982 58.7437 51.2651C58.522 50.0216 58.6159 48.8656 59.0254 47.7971C59.4349 46.7286 60.1169 45.8343 61.0715 45.1144C61.8877 44.4988 62.7253 44.1274 63.5845 44.0003C64.4574 43.8628 65.2634 43.9386 66.0023 44.2277L64.7659 42.5884L68.3143 39.912L77.0477 51.4911L73.4993 54.1675L72.2628 52.5281C72.3239 53.3285 72.1684 54.1295 71.7963 54.931C71.438 55.7221 70.8507 56.4255 70.0345 57.0411C69.0938 57.7507 68.0535 58.1555 66.9136 58.2556C65.7633 58.3419 64.6207 58.1076 63.486 57.5527C62.3547 56.9736 61.3403 56.0891 60.443 54.8994ZM69.1326 48.3779C68.4648 47.4925 67.6888 46.9817 66.8047 46.8455C65.9345 46.6988 65.1466 46.8916 64.4411 47.4237C63.7355 47.9559 63.3268 48.6657 63.2148 49.5532C63.1063 50.4164 63.3859 51.2907 64.0537 52.1761C64.7214 53.0614 65.4957 53.5844 66.3764 53.7449C67.2605 53.8811 68.0553 53.6832 68.7608 53.151C69.4663 52.6189 69.8682 51.9143 69.9663 51.0372C70.0783 50.1497 69.8003 49.2633 69.1326 48.3779Z" fill="#0097FF"/>
<path d="M71.7582 35.4262C71.1357 35.8958 70.4882 36.102 69.8157 36.0449C69.1466 35.9635 68.6086 35.6531 68.2017 35.1136C67.7843 34.5602 67.6337 33.9576 67.7498 33.3058C67.8692 32.6296 68.2402 32.0568 68.8627 31.5873C69.4714 31.1282 70.1103 30.9393 70.7794 31.0207C71.4519 31.0778 71.9968 31.383 72.4142 31.9364C72.8211 32.4759 72.9648 33.0837 72.8454 33.7598C72.7293 34.4116 72.3669 34.9671 71.7582 35.4262ZM74.4298 35.2994L83.1632 46.8785L79.6148 49.5549L70.8814 37.9758L74.4298 35.2994Z" fill="#0097FF"/>
<path d="M92.5826 39.7741L87.9363 38.2323L88.4946 42.8574L84.6557 45.7528L84.0133 36.959L75.8185 34.252L79.8027 31.247L84.4334 32.768L83.8907 28.1637L87.7296 25.2682L88.2472 34.026L96.5668 36.769L92.5826 39.7741Z" fill="#0097FF"/>
<path d="M92.8462 30.4596C91.9488 29.2699 91.3824 28.0585 91.1469 26.8254C90.9252 25.5818 91.0191 24.4258 91.4286 23.3573C91.8381 22.2888 92.5201 21.3946 93.4747 20.6746C94.2909 20.059 95.1285 19.6876 95.9877 19.5606C96.8606 19.423 97.6666 19.4988 98.4055 19.7879L97.1691 18.1486L100.717 15.4722L109.451 27.0513L105.902 29.7277L104.666 28.0883C104.727 28.8887 104.572 29.6897 104.199 30.4912C103.841 31.2824 103.254 31.9857 102.438 32.6013C101.497 33.3109 100.457 33.7157 99.3168 33.8158C98.1665 33.9021 97.024 33.6678 95.8892 33.1129C94.7579 32.5338 93.7435 31.6493 92.8462 30.4596ZM101.536 23.9381C100.868 23.0528 100.092 22.542 99.208 22.4057C98.3377 22.2591 97.5498 22.4518 96.8443 22.9839C96.1387 23.5161 95.73 24.2259 95.618 25.1134C95.5095 25.9766 95.7891 26.8509 96.4569 27.7363C97.1246 28.6217 97.8989 29.1446 98.7796 29.3051C99.6637 29.4413 100.458 29.2434 101.164 28.7112C101.87 28.1791 102.271 27.4745 102.37 26.5974C102.481 25.7099 102.204 24.8235 101.536 23.9381Z" fill="#0097FF"/>
<path d="M37.614 50.8479L55.3521 74.3657" stroke="#0054B6" stroke-linejoin="round" stroke-dasharray="1 1"/>
</svg>
