<svg width="20" height="15" viewBox="0 0 12 6" fill="none" xmlns="http://www.w3.org/2000/svg">
<path d="M11.0685 0.157354L6.38346 4.76835C6.28124 4.86948 6.14325 4.92621 5.99946 4.92621C5.85567 4.92621 5.71768 4.86948 5.61546 4.76835L0.930459 0.158355C0.827604 0.0572791 0.689166 0.000642776 0.544959 0.000642776C0.400753 0.000642776 0.262315 0.0572791 0.159459 0.158355C0.108811 0.207732 0.0685585 0.266748 0.0410748 0.331924C0.013591 0.397101 -0.00056839 0.467121 -0.00056839 0.537855C-0.00056839 0.60859 0.013591 0.678608 0.0410748 0.743785C0.0685585 0.808962 0.108811 0.867978 0.159459 0.917355L4.84346 5.52735C5.15198 5.83028 5.56708 6 5.99946 6C6.43184 6 6.84694 5.83028 7.15546 5.52735L11.8395 0.917355C11.8903 0.867962 11.9306 0.808885 11.9582 0.743615C11.9858 0.678346 12 0.60821 12 0.537354C12 0.466499 11.9858 0.396364 11.9582 0.331095C11.9306 0.265825 11.8903 0.206747 11.8395 0.157354C11.7366 0.0562787 11.5982 -0.000357628 11.454 -0.000357628C11.3098 -0.000357628 11.1713 0.0562787 11.0685 0.157354Z" fill="white"/>
</svg>
